<?xml version="1.0" standalone="no"?><!DOCTYPE svg PUBLIC "-//W3C//DTD SVG 1.1//EN" "http://www.w3.org/Graphics/SVG/1.1/DTD/svg11.dtd"><svg class="icon" width="200px" height="142.92px" viewBox="0 0 1433 1024" version="1.1" xmlns="http://www.w3.org/2000/svg"><path d="M1050.624 586.6496a40.2432 40.2432 0 0 0-31.9488-27.5456l-139.264-22.9376 160.1536-145.6128c11.264-10.24 15.4624-25.7024 11.0592-40.0384a40.3456 40.3456 0 0 0-32.0512-27.4432l-139.264-23.04 160.1536-145.6128c11.264-10.24 15.5648-25.7024 11.1616-39.936a40.3456 40.3456 0 0 0-32.0512-27.648L498.0736 0.9216a41.2672 41.2672 0 0 0-31.4368 7.68L16.384 343.7568a38.7072 38.7072 0 0 0-15.0528 39.1168 39.936 39.936 0 0 0 29.696 30.208l156.672 39.3216L16.384 579.8912a38.7072 38.7072 0 0 0-14.9504 39.1168 39.936 39.936 0 0 0 29.5936 30.208l156.5696 39.3216L16.384 816.0256a38.7072 38.7072 0 0 0-14.9504 39.0144 39.936 39.936 0 0 0 29.5936 30.208l545.8944 137.216a41.2672 41.2672 0 0 0 37.888-9.4208l424.8576-386.4576c11.0592-10.24 15.36-25.6 10.9568-39.936zM131.8912 357.0688L501.9648 81.408l422.6048 69.8368-348.9792 317.3376-443.8016-111.5136z m0 236.1344l155.5456-115.712 289.5872 72.704a41.2672 41.2672 0 0 0 37.888-9.4208l190.464-173.1584 119.296 19.6608-348.8768 317.44-443.904-111.5136zM575.488 940.8512l-443.904-111.616 155.4432-115.712 289.792 72.704a41.2672 41.2672 0 0 0 37.888-9.4208l190.464-173.056 119.296 19.6608-348.9792 317.44z"  /><path d="M1233.3056 291.2256L1033.216 550.5024h133.5296v19.456c0 135.9872-46.7968 259.072-120.2176 362.9056 146.8416-71.3728 246.9888-213.9136 253.6448-382.3616H1433.6l-200.2944-259.2768z"  /></svg>